<svg width="55" height="45" viewBox="0 0 55 45" fill="none" xmlns="http://www.w3.org/2000/svg">
<g clip-path="url(#clip0)">
<rect width="55" height="45" fill="white"/>
<path d="M55 14.0625V42.9911C55 45.6529 52.6904 47.8125 49.8437 47.8125H5.15625C2.30957 47.8125 0 45.6529 0 42.9911V14.0625C0 11.4007 2.30957 9.24107 5.15625 9.24107H14.6094L15.9307 5.93638C16.6826 4.05804 18.6055 2.8125 20.7539 2.8125H34.2354C36.3838 2.8125 38.3066 4.05804 39.0586 5.93638L40.3906 9.24107H49.8437C52.6904 9.24107 55 11.4007 55 14.0625ZM40.3906 28.5268C40.3906 21.8772 34.6113 16.4732 27.5 16.4732C20.3887 16.4732 14.6094 21.8772 14.6094 28.5268C14.6094 35.1763 20.3887 40.5804 27.5 40.5804C34.6113 40.5804 40.3906 35.1763 40.3906 28.5268ZM36.9531 28.5268C36.9531 33.3984 32.71 37.3661 27.5 37.3661C22.29 37.3661 18.0469 33.3984 18.0469 28.5268C18.0469 23.6551 22.29 19.6875 27.5 19.6875C32.71 19.6875 36.9531 23.6551 36.9531 28.5268Z" fill="#34B9D7"/>
</g>
<defs>
<clipPath id="clip0">
<rect width="55" height="45" fill="white"/>
</clipPath>
</defs>
</svg>
